<?xml version="1.0" encoding="utf-8"?>
<!-- Generator: Adobe Illustrator 23.0.2, SVG Export Plug-In . SVG Version: 6.00 Build 0)  -->
<svg version="1.1" id="Layer_1" xmlns="http://www.w3.org/2000/svg" xmlns:xlink="http://www.w3.org/1999/xlink" x="0px" y="0px"
	 viewBox="0 0 143 52" style="enable-background:new 0 0 143 52;" xml:space="preserve">
<style type="text/css">
	.st0{fill:#FFFFFF;}
</style>
<g>
	<g>
		<path class="st0" d="M55.2,17.4c0.5,0.7,0.7,1.5,0.7,2.4c0,1.3-0.5,2.4-1.6,3.1c-1,0.7-2.6,1.1-4.6,1.1h-8V8.6h7.5
			c1.9,0,3.3,0.4,4.3,1.1s1.5,1.7,1.5,2.9c0,0.7-0.2,1.4-0.5,2c-0.4,0.6-0.9,1-1.5,1.4C54,16.3,54.7,16.7,55.2,17.4z M45.4,11.3v3.6
			h3.5c0.9,0,1.5-0.2,2-0.5c0.5-0.3,0.7-0.8,0.7-1.4c0-0.6-0.2-1.1-0.7-1.4c-0.5-0.3-1.1-0.5-2-0.5H45.4z M51.6,20.9
			c0.5-0.3,0.7-0.8,0.7-1.4c0-1.3-0.9-1.9-2.8-1.9h-4.2v3.8h4.2C50.5,21.3,51.2,21.2,51.6,20.9z"/>
		<path class="st0" d="M69.9,19h-9c0.2,0.7,0.5,1.3,1.1,1.7s1.3,0.6,2.2,0.6c0.6,0,1.2-0.1,1.6-0.3c0.5-0.2,0.9-0.5,1.3-0.9l1.8,2
			c-1.1,1.3-2.7,1.9-4.9,1.9c-1.3,0-2.5-0.3-3.5-0.8c-1-0.5-1.8-1.2-2.4-2.2c-0.6-0.9-0.8-2-0.8-3.1c0-1.2,0.3-2.2,0.8-3.1
			c0.6-0.9,1.3-1.7,2.3-2.2c1-0.5,2-0.8,3.2-0.8c1.2,0,2.2,0.2,3.1,0.7c0.9,0.5,1.7,1.2,2.2,2.1c0.5,0.9,0.8,2,0.8,3.2
			C70,18.2,70,18.5,69.9,19z M61.9,15.2c-0.5,0.4-0.9,1-1,1.8h5.8c-0.1-0.7-0.4-1.3-1-1.8c-0.5-0.4-1.2-0.7-1.9-0.7
			C63.1,14.6,62.4,14.8,61.9,15.2z"/>
		<path class="st0" d="M79.9,23.4c-0.3,0.2-0.8,0.4-1.2,0.6c-0.5,0.1-1,0.2-1.6,0.2c-1.4,0-2.5-0.4-3.3-1.1
			c-0.8-0.7-1.2-1.8-1.2-3.2v-4.9h-1.8v-2.6h1.8V9.5h3.4v2.9h2.9v2.6h-2.9v4.8c0,0.5,0.1,0.9,0.4,1.2c0.3,0.3,0.6,0.4,1.1,0.4
			c0.5,0,1-0.1,1.4-0.4L79.9,23.4z"/>
		<path class="st0" d="M100.9,12.2L96.6,24h-3.3l-2.7-7.3L87.9,24h-3.3l-4.3-11.8h3.2l2.8,8l2.9-8h2.9l2.8,8l2.9-8H100.9z"/>
		<path class="st0" d="M114,19h-9c0.2,0.7,0.5,1.3,1.1,1.7s1.3,0.6,2.2,0.6c0.6,0,1.2-0.1,1.6-0.3c0.5-0.2,0.9-0.5,1.3-0.9l1.8,2
			c-1.1,1.3-2.7,1.9-4.9,1.9c-1.3,0-2.5-0.3-3.5-0.8c-1-0.5-1.8-1.2-2.4-2.2c-0.6-0.9-0.8-2-0.8-3.1c0-1.2,0.3-2.2,0.8-3.1
			c0.5-0.9,1.3-1.7,2.3-2.2c1-0.5,2-0.8,3.2-0.8c1.2,0,2.2,0.2,3.1,0.7c0.9,0.5,1.7,1.2,2.2,2.1c0.5,0.9,0.8,2,0.8,3.2
			C114.1,18.2,114.1,18.5,114,19z M106,15.2c-0.5,0.4-0.9,1-1,1.8h5.8c-0.1-0.7-0.4-1.3-1-1.8c-0.5-0.4-1.2-0.7-1.9-0.7
			C107.2,14.6,106.5,14.8,106,15.2z"/>
		<path class="st0" d="M127.9,19h-9c0.2,0.7,0.5,1.3,1.1,1.7s1.3,0.6,2.2,0.6c0.6,0,1.2-0.1,1.6-0.3s0.9-0.5,1.3-0.9l1.8,2
			c-1.1,1.3-2.7,1.9-4.9,1.9c-1.3,0-2.5-0.3-3.5-0.8c-1-0.5-1.8-1.2-2.4-2.2c-0.6-0.9-0.8-2-0.8-3.1c0-1.2,0.3-2.2,0.8-3.1
			c0.5-0.9,1.3-1.7,2.3-2.2s2-0.8,3.2-0.8c1.2,0,2.2,0.2,3.1,0.7c0.9,0.5,1.7,1.2,2.2,2.1c0.5,0.9,0.8,2,0.8,3.2
			C128,18.2,127.9,18.5,127.9,19z M119.9,15.2c-0.5,0.4-0.9,1-1,1.8h5.8c-0.1-0.7-0.4-1.3-1-1.8c-0.5-0.4-1.2-0.7-1.9-0.7
			C121,14.6,120.4,14.8,119.9,15.2z"/>
		<path class="st0" d="M141,13.3c0.9,0.9,1.4,2.2,1.4,3.9V24h-3.4v-6.2c0-0.9-0.2-1.6-0.6-2.1c-0.4-0.5-1-0.7-1.8-0.7
			c-0.9,0-1.6,0.3-2.1,0.8c-0.5,0.5-0.8,1.3-0.8,2.4V24h-3.4V12.2h3.3v1.4c0.5-0.5,1-0.9,1.7-1.2c0.7-0.3,1.4-0.4,2.2-0.4
			C138.9,12,140.1,12.4,141,13.3z"/>
	</g>
	<g>
		<path class="st0" d="M45.4,38.5v4.1h7.1v2.9h-7.1V51h-3.6V35.6h11.6v2.9H45.4z"/>
		<path class="st0" d="M60.6,39.4c0.7-0.3,1.5-0.4,2.4-0.4v3.2c-0.4,0-0.6,0-0.8,0c-1,0-1.8,0.3-2.3,0.8c-0.6,0.5-0.8,1.4-0.8,2.5
			V51h-3.4V39.2h3.3v1.6C59.3,40.2,59.9,39.7,60.6,39.4z"/>
		<path class="st0" d="M65.3,37c-0.4-0.4-0.6-0.8-0.6-1.4c0-0.5,0.2-1,0.6-1.4c0.4-0.4,0.9-0.6,1.5-0.6c0.6,0,1.1,0.2,1.5,0.5
			S69,35,69,35.5c0,0.6-0.2,1-0.6,1.4s-0.9,0.6-1.5,0.6C66.2,37.5,65.7,37.3,65.3,37z M65.1,39.2h3.4V51h-3.4V39.2z"/>
		<path class="st0" d="M83.3,46h-9c0.2,0.7,0.5,1.3,1.1,1.7s1.3,0.6,2.2,0.6c0.6,0,1.2-0.1,1.6-0.3c0.5-0.2,0.9-0.5,1.3-0.9l1.8,2
			c-1.1,1.3-2.7,1.9-4.9,1.9c-1.3,0-2.5-0.3-3.5-0.8c-1-0.5-1.8-1.2-2.4-2.2c-0.6-0.9-0.8-2-0.8-3.1c0-1.2,0.3-2.2,0.8-3.1
			s1.3-1.7,2.3-2.2c1-0.5,2-0.8,3.2-0.8c1.2,0,2.2,0.2,3.1,0.7c0.9,0.5,1.7,1.2,2.2,2.1c0.5,0.9,0.8,2,0.8,3.2
			C83.3,45.2,83.3,45.5,83.3,46z M75.2,42.2c-0.5,0.4-0.9,1-1,1.8h5.8c-0.1-0.7-0.4-1.3-1-1.8c-0.5-0.4-1.2-0.7-1.9-0.7
			C76.4,41.6,75.8,41.8,75.2,42.2z"/>
		<path class="st0" d="M96.4,40.3c0.9,0.9,1.4,2.2,1.4,3.9V51h-3.4v-6.2c0-0.9-0.2-1.6-0.6-2.1c-0.4-0.5-1-0.7-1.8-0.7
			c-0.9,0-1.6,0.3-2.1,0.8c-0.5,0.5-0.8,1.3-0.8,2.4V51h-3.4V39.2h3.3v1.4c0.5-0.5,1-0.9,1.7-1.2c0.7-0.3,1.4-0.4,2.2-0.4
			C94.3,39,95.5,39.4,96.4,40.3z"/>
		<path class="st0" d="M112.9,34.7V51h-3.3v-1.4c-0.9,1-2.1,1.5-3.7,1.5c-1.1,0-2.1-0.2-3-0.7c-0.9-0.5-1.6-1.2-2.1-2.1
			s-0.8-2-0.8-3.2c0-1.2,0.3-2.3,0.8-3.2c0.5-0.9,1.2-1.6,2.1-2.1s1.9-0.7,3-0.7c1.5,0,2.7,0.5,3.5,1.4v-5.7H112.9z M108.7,47.5
			c0.6-0.6,0.9-1.4,0.9-2.4c0-1-0.3-1.8-0.9-2.4c-0.6-0.6-1.3-0.9-2.2-0.9c-0.9,0-1.6,0.3-2.2,0.9c-0.6,0.6-0.9,1.4-0.9,2.4
			c0,1,0.3,1.8,0.9,2.4c0.6,0.6,1.3,0.9,2.2,0.9C107.4,48.4,108.1,48.1,108.7,47.5z"/>
		<path class="st0" d="M117.2,50.8c-0.9-0.2-1.7-0.5-2.2-0.9l1.1-2.5c0.5,0.3,1.2,0.6,1.9,0.8c0.7,0.2,1.5,0.3,2.2,0.3
			c1.5,0,2.2-0.4,2.2-1.1c0-0.3-0.2-0.6-0.6-0.7c-0.4-0.1-1-0.3-1.8-0.4c-1-0.1-1.8-0.3-2.4-0.5c-0.6-0.2-1.2-0.5-1.6-1
			c-0.5-0.5-0.7-1.2-0.7-2.1c0-0.7,0.2-1.4,0.6-2s1.1-1,1.9-1.4c0.8-0.3,1.8-0.5,2.9-0.5c0.8,0,1.7,0.1,2.5,0.3
			c0.8,0.2,1.5,0.4,2.1,0.8l-1.1,2.4c-1-0.6-2.2-0.9-3.4-0.9c-0.7,0-1.3,0.1-1.7,0.3c-0.4,0.2-0.5,0.5-0.5,0.8
			c0,0.4,0.2,0.6,0.6,0.8c0.4,0.1,1,0.3,1.9,0.4c1,0.2,1.8,0.3,2.4,0.5s1.2,0.5,1.6,1c0.5,0.5,0.7,1.2,0.7,2c0,0.7-0.2,1.4-0.7,2
			c-0.4,0.6-1.1,1-1.9,1.3c-0.8,0.3-1.8,0.5-3,0.5C119.1,51.2,118.1,51.1,117.2,50.8z"/>
	</g>
	<g>
		<defs>
			<rect id="SVGID_1_" width="32" height="32"/>
		</defs>
		<clipPath id="SVGID_2_">
			<use xlink:href="#SVGID_1_"  style="overflow:visible;"/>
		</clipPath>
		<g style="clip-path:url(#SVGID_2_);">
			
				<image style="overflow:visible;" width="117" height="112" xlink:href="6F949397EAC977D5.png"  transform="matrix(0.2735 0 0 0.2857 0 0)">
			</image>
		</g>
	</g>
</g>
</svg>
